<svg xmlns="http://www.w3.org/2000/svg" width="75" height="22" viewBox="0 0 75 22">
    <path fill="#F8FAFD" fill-rule="nonzero" d="M.488 17.155V8.701H10.91v-.494H.488V.494h11.08V0H0v17.65h11.666v-.495H.488zM21.063 4.944l-4.32 5.76-4.223-5.76h-.634l4.564 6.13-5.004 6.575h.586l4.71-6.204 4.735 6.204h.61l-5.027-6.575 4.588-6.13h-.586zM23.552 22v-7.91h.049c.293 1.154.87 2.08 1.733 2.78.862.701 1.96 1.052 3.294 1.052.863 0 1.627-.178 2.295-.532a4.898 4.898 0 0 0 1.671-1.446c.448-.61.79-1.318 1.025-2.126a9.036 9.036 0 0 0 .354-2.546c0-.956-.122-1.837-.366-2.645-.244-.807-.598-1.508-1.061-2.101a4.893 4.893 0 0 0-1.685-1.384c-.658-.33-1.403-.495-2.233-.495-.634 0-1.224.095-1.77.285-.544.19-1.028.457-1.451.803a5.417 5.417 0 0 0-1.099 1.224c-.309.47-.545.984-.707 1.545h-.05v-3.56h-.487V22h.488zm5.076-4.548c-1.529 0-2.758-.532-3.685-1.595s-1.391-2.591-1.391-4.585c0-.824.114-1.607.342-2.348a6.11 6.11 0 0 1 .988-1.953 4.76 4.76 0 0 1 1.599-1.335c.634-.33 1.35-.494 2.147-.494.814 0 1.526.164 2.136.494.61.33 1.115.779 1.513 1.347.399.569.7 1.22.903 1.953.203.733.305 1.512.305 2.336a8.91 8.91 0 0 1-.28 2.212 6.365 6.365 0 0 1-.867 1.978 4.741 4.741 0 0 1-1.5 1.434c-.611.37-1.347.556-2.21.556zm8.03.197v-7.193c0-.692.098-1.368.293-2.027.195-.659.496-1.24.903-1.742a4.238 4.238 0 0 1 1.55-1.187c.626-.288 1.37-.408 2.233-.358v-.495c-.749-.016-1.403.066-1.965.247a4.749 4.749 0 0 0-1.452.742c-.407.313-.732.68-.976 1.1-.244.42-.425.874-.537 1.347h-.049v-3.14h-.488V17.65h.488zm5.589-6.254h10.495a8.906 8.906 0 0 0-.257-2.52 6.309 6.309 0 0 0-.976-2.151 4.989 4.989 0 0 0-1.733-1.508c-.708-.38-1.55-.569-2.526-.569-.7 0-1.383.149-2.05.445a5.1 5.1 0 0 0-1.757 1.298c-.504.568-.911 1.265-1.22 2.089-.31.824-.464 1.763-.464 2.818 0 .939.106 1.817.317 2.632.212.816.537 1.525.976 2.126a4.417 4.417 0 0 0 1.697 1.397c.691.33 1.525.486 2.501.47 1.432 0 2.636-.409 3.612-1.224.977-.816 1.554-1.965 1.733-3.449h-.488c-.211 1.401-.753 2.452-1.623 3.152-.87.7-1.965 1.05-3.283 1.05-.895 0-1.651-.156-2.27-.469a4.126 4.126 0 0 1-1.513-1.285 5.64 5.64 0 0 1-.866-1.916 10.43 10.43 0 0 1-.305-2.386zm10.006-.494H42.247c.049-.89.211-1.689.488-2.398a5.959 5.959 0 0 1 1.086-1.816 4.542 4.542 0 0 1 1.562-1.15 4.668 4.668 0 0 1 1.916-.395c.814 0 1.53.152 2.148.457a4.447 4.447 0 0 1 1.55 1.248 5.53 5.53 0 0 1 .94 1.842c.21.7.316 1.438.316 2.212zm10.617-2.2h.488c0-1.417-.406-2.447-1.22-3.09-.814-.642-1.92-.964-3.32-.964-.78 0-1.44.1-1.976.297-.537.198-.976.453-1.318.766-.342.313-.586.66-.732 1.038-.147.38-.22.742-.22 1.088 0 .692.122 1.244.366 1.656.244.412.627.733 1.147.964.358.165.765.313 1.22.445.456.132.985.272 1.587.42.537.132 1.066.264 1.586.396.521.132.98.309 1.38.531.398.223.723.507.976.853.252.346.378.8.378 1.36 0 .544-.126 1.005-.378 1.384-.25.377-.58.694-.964.927-.39.239-.826.412-1.306.519-.48.107-.948.16-1.404.16-1.48 0-2.615-.333-3.404-1-.79-.668-1.184-1.718-1.184-3.152h-.488c0 1.598.427 2.768 1.281 3.51.855.742 2.12 1.112 3.795 1.112.537 0 1.078-.062 1.624-.185a4.479 4.479 0 0 0 1.464-.606 3.332 3.332 0 0 0 1.05-1.087c.268-.445.402-.99.402-1.632 0-.61-.118-1.104-.354-1.483a2.988 2.988 0 0 0-.927-.94 4.888 4.888 0 0 0-1.294-.58c-.483-.141-.967-.277-1.452-.408-.597-.159-1.195-.315-1.794-.47a10.796 10.796 0 0 1-1.428-.47 2.426 2.426 0 0 1-1.013-.778c-.252-.338-.378-.82-.378-1.446 0-.115.033-.321.098-.618s.22-.597.464-.902c.244-.305.618-.577 1.122-.816.505-.239 1.196-.358 2.075-.358.602 0 1.15.066 1.647.197.496.132.924.342 1.281.63.358.29.635.656.83 1.1.196.446.293.99.293 1.632zm11.3 0h.488c0-1.417-.406-2.447-1.22-3.09-.814-.642-1.92-.964-3.32-.964-.78 0-1.44.1-1.976.297-.537.198-.976.453-1.318.766-.342.313-.586.66-.732 1.038-.147.38-.22.742-.22 1.088 0 .692.122 1.244.366 1.656.244.412.627.733 1.147.964.358.165.765.313 1.22.445.456.132.985.272 1.587.42.537.132 1.066.264 1.586.396.521.132.98.309 1.38.531.398.223.723.507.976.853.252.346.378.8.378 1.36 0 .544-.126 1.005-.378 1.384-.25.377-.58.694-.964.927-.391.239-.826.412-1.306.519-.48.107-.948.16-1.404.16-1.48 0-2.615-.333-3.404-1-.79-.668-1.184-1.718-1.184-3.152h-.488c0 1.598.427 2.768 1.281 3.51.854.742 2.12 1.112 3.795 1.112.537 0 1.078-.062 1.623-.185a4.48 4.48 0 0 0 1.465-.606 3.332 3.332 0 0 0 1.05-1.087c.268-.445.402-.99.402-1.632 0-.61-.118-1.104-.354-1.483a2.986 2.986 0 0 0-.927-.94 4.89 4.89 0 0 0-1.294-.58c-.482-.141-.967-.277-1.452-.408a250.33 250.33 0 0 0-1.794-.47 10.791 10.791 0 0 1-1.428-.47 2.425 2.425 0 0 1-1.012-.778c-.253-.338-.379-.82-.379-1.446 0-.115.033-.321.098-.618s.22-.597.464-.902c.244-.305.618-.577 1.122-.816.505-.239 1.196-.358 2.075-.358.602 0 1.15.066 1.647.197.496.132.924.342 1.282.63.358.29.634.656.83 1.1.195.446.292.99.292 1.632z"/>
</svg>
