<svg xmlns="http://www.w3.org/2000/svg" width="40" height="46" viewBox="0 0 40 46">
    <g fill="none" fill-rule="nonzero">
        <path fill="#F8FAFD" d="M0 0l40 .016-3.682 41.311L19.968 46 3.714 41.359 0 0zm34.05 9.2l-12.511.063.168 17.554 7.558-1.34-.107 3.908-7.619 2.096.076 4.79 10.53-2.836 1.051-13.22-7.771.898v-7.06l8.29-.031.335-4.822zm-15.548-.328h-3.978l-.047 21.2-7.722-2.131.016 4.846 11.731 3.205V8.872z"/>
        <path fill="#EBEBEB" fill-opacity="0" d="M17.829 35.715c-.49-.159-2.906-.856-5.367-1.569L8 32.863V30.47c0-2.345 0-2.393.222-2.313.119.047 1.75.523 3.618 1.077l3.395.998.03-10.616L15.293 9H19v13.5c0 10.727-.03 13.5-.133 13.5a28.702 28.702 0 0 1-1.038-.285z" opacity=".986"/>
    </g>
</svg>
